/* XPM */
static char * close_active_xpm[] = {
"24 25 29 1",
" 	c None",
".	c #28343A",
"@	c #222D32",
"#	c #483540",
"$	c #AC3641",
"%	c #D53540",
"&	c #DE3642",
"*	c #D43440",
"=	c #AB3641",
"-	c #893742",
";	c #DE3740",
">	c #EF4B52",
",	c #F25056",
"'	c #873742",
")	c #E33C47",
"!	c #E33C46",
"~	c #DE3640",
"{	c #49343F",
"]	c #EE4A51",
"^	c #AC3540",
"/	c #D43640",
"(	c #DF3742",
"_	c #DE3741",
":	c #EE4A52",
"<	c #DD3642",
"[	c #47343F",
"}	c #E33B46",
"|	c #853741",
"1	c #D23541",
"........................",
"@@@@@@@@@@@@@@@@@@@@@@@@",
"@@@@@@@@@@@@@@@@@@@@@@@@",
"@@@@@@@@@@@@@@@@@@@@@@@@",
"@@@@@@@@@@@@@@@@@@@@@@@@",
"@@@@@@@@#$%&&*=#@@@@@@@@",
"@@@@@@@-;>,,,,>;'@@@@@@@",
"@@@@@@-),,,,,,,,!'@@@@@@",
"@@@@@#;,,,,,,,,,,~{@@@@@",
"@@@@@$>,,,,,,,,,,]^@@@@@",
"@@@@@%,,,,,,,,,,,,/@@@@@",
"@@@@@(,,,,,,,,,,,,_@@@@@",
"@@@@@_,,,,,,,,,,,,;@@@@@",
"@@@@@%,,,,,,,,,,,,/@@@@@",
"@@@@@=:,,,,,,,,,,]=@@@@@",
"@@@@@#;,,,,,,,,,,<[@@@@@",
"@@@@@@'!,,,,,,,,}|@@@@@@",
"@@@@@@@'~],,,,]<|@@@@@@@",
"@@@@@@@@{^1((1=[@@@@@@@@",
"@@@@@@@@@@@@@@@@@@@@@@@@",
"@@@@@@@@@@@@@@@@@@@@@@@@",
"@@@@@@@@@@@@@@@@@@@@@@@@",
"@@@@@@@@@@@@@@@@@@@@@@@@",
"@@@@@@@@@@@@@@@@@@@@@@@@",
"@@@@@@@@@@@@@@@@@@@@@@@@"};
